<svg xmlns="http://www.w3.org/2000/svg" xmlns:xlink="http://www.w3.org/1999/xlink" width="506.067" height="58.443" viewBox="0 0 133.897 15.463"><g fill="#333335"><path d="M8.319 5.491v.584a1.98 1.98 0 0 0-.601-.386 1.76 1.76 0 0 0-.678-.132c-.471 0-.831.143-1.08.43s-.375.703-.375 1.246.124.959.375 1.246.609.43 1.08.43a1.8 1.8 0 0 0 .678-.127c.214-.086.413-.218.601-.391v.579a2.37 2.37 0 0 1-.623.303c-.218.066-.446.099-.689.099-.621 0-1.112-.19-1.472-.573S5 7.894 5 7.233s.178-1.181.535-1.56.85-.573 1.472-.573c.245 0 .477.033.695.099s.426.16.617.292zM9.157 5h.507v4.288h-.507zm0 0"/><use xlink:href="#B"/><path d="M14.68 5.325v.876h1.042v.391H14.68v1.676c0 .254.033.418.099.491s.211.105.424.105h.518v.424h-.518c-.394 0-.666-.073-.816-.22s-.22-.413-.22-.799V6.593h-.369v-.391h.369v-.876zm4.275 2.101v1.863h-.507V7.442c0-.294-.058-.513-.171-.656s-.285-.22-.513-.22c-.273 0-.488.088-.645.265s-.237.411-.237.711v1.747h-.513V5h.513v1.681a1.24 1.24 0 0 1 .424-.419c.165-.091.356-.138.573-.138.353 0 .619.11.799.331s.276.544.276.97zm1.014-1.224h.507v3.087h-.507zm0-1.202h.507v.639h-.507zM24.1 7.426v1.863h-.507V7.442c0-.294-.058-.513-.171-.656s-.285-.22-.513-.22c-.273 0-.488.088-.645.265s-.237.411-.237.711v1.747h-.513V6.202h.513v.48a1.24 1.24 0 0 1 .424-.419c.165-.091.356-.138.573-.138.353 0 .619.11.799.331s.276.544.276.97zm3.043.281c0-.367-.076-.652-.226-.854s-.364-.303-.639-.303-.484.102-.634.303-.226.488-.226.854.074.653.226.854.361.303.634.303a.75.75 0 0 0 .639-.303c.15-.201.226-.486.226-.854zm.507 1.196c0 .529-.119.921-.353 1.174s-.588.386-1.069.386a3.22 3.22 0 0 1-.502-.039c-.158-.026-.313-.066-.463-.121v-.496a2.03 2.03 0 0 0 .441.176c.146.04.295.061.446.061.331 0 .579-.087.744-.259s.248-.435.248-.788v-.254a1.03 1.03 0 0 1-.402.413 1.21 1.21 0 0 1-.584.132c-.379 0-.684-.143-.915-.43s-.347-.674-.347-1.152.116-.86.347-1.147a1.12 1.12 0 0 1 .915-.435c.227 0 .422.047.584.138s.299.225.402.408v-.469h.507zm0 0"/></g><path d="M33.123 5.171h.469l-1.433 4.641h-.469zm0 0" fill="#868689"/><g fill="#333335"><path d="M39.347 5.551a1.17 1.17 0 0 0-.965.452c-.239.3-.358.711-.358 1.229s.119.929.358 1.229.559.452.965.452a1.15 1.15 0 0 0 .959-.452c.234-.3.353-.711.353-1.229s-.119-.927-.353-1.229-.555-.452-.959-.452zm0-.452c.576 0 1.038.193 1.384.579s.518.904.518 1.554-.174 1.171-.518 1.56-.808.579-1.384.579c-.582 0-1.045-.193-1.389-.579s-.518-.91-.518-1.56.172-1.169.518-1.554.808-.579 1.389-.579zm2.695 2.971V6.202h.507v1.847c0 .295.056.515.171.661s.284.215.513.215c.276 0 .492-.085.65-.259s.237-.415.237-.717V6.202h.507v3.087h-.507v-.474a1.22 1.22 0 0 1-.43.419c-.163.091-.35.138-.562.138-.357 0-.627-.11-.81-.331s-.276-.547-.276-.97zm1.279-1.946zm2.855-.799v.876h1.042v.391h-1.042v1.676c0 .254.033.418.099.491s.211.105.424.105h.518v.424H46.7c-.394 0-.666-.073-.816-.22s-.22-.413-.22-.799V6.593h-.369v-.391h.369v-.876zm0 0"/><use xlink:href="#C"/><use xlink:href="#D"/><path d="M53.383 6.202h.507l.634 2.409.634-2.409h.595l.634 2.409.634-2.409h.507l-.81 3.087h-.595l-.667-2.53-.667 2.53h-.595zm0 0"/><use xlink:href="#C" x="10.41"/><use xlink:href="#E"/><use xlink:href="#D" x="13.869"/></g><path d="M71.979 5.171h.469l-1.433 4.641h-.469zm0 0" fill="#868689"/><g fill="#0f0f0f"><path d="M77.088 5.629v1.549h.7c.256 0 .455-.066.595-.198s.215-.328.215-.579c0-.245-.072-.435-.215-.568s-.339-.204-.595-.204zm-.557-.458h1.257c.459 0 .806.105 1.042.314s.358.515.358.915c0 .408-.12.717-.358.926s-.583.309-1.042.309h-.7v1.654h-.557zm0 0"/><use xlink:href="#E" x="17.89"/><use xlink:href="#F"/><use xlink:href="#F" x="3.583"/><use xlink:href="#C" x="42.397"/><path d="M95.785 6.67V5h.507v4.288h-.507v-.463a1.08 1.08 0 0 1-.402.413c-.161.091-.357.132-.584.132a1.11 1.11 0 0 1-.915-.446c-.232-.3-.347-.695-.347-1.18s.116-.876.347-1.174a1.11 1.11 0 0 1 .915-.446c.227 0 .422.047.584.138a1.06 1.06 0 0 1 .402.408zM94.06 7.745c0 .375.074.67.226.882s.365.314.634.314.48-.105.634-.314.232-.507.232-.882-.077-.663-.232-.876-.367-.32-.634-.32a.74.74 0 0 0-.634.32c-.152.214-.226.506-.226.876zm4.727-2.574h.562l.865 3.478.865-3.478h.623l.865 3.478.865-3.478h.562l-1.031 4.118h-.7l-.871-3.572-.876 3.572h-.7zm0 0"/><use xlink:href="#E" x="42.584"/><use xlink:href="#G"/><path d="M110.754 6.202h.507v3.087h-.507zm0-1.202h.507v.639h-.507zm0 0"/><use xlink:href="#H"/><path d="M116.757 6.318v.474c-.143-.077-.289-.135-.435-.176a1.62 1.62 0 0 0-.435-.061c-.328 0-.583.105-.766.314s-.27.502-.27.876.09.672.27.882.438.309.766.309a1.73 1.73 0 0 0 .435-.055 1.9 1.9 0 0 0 .435-.182v.469a2.16 2.16 0 0 1-.441.149 2.1 2.1 0 0 1-.485.055c-.463 0-.832-.146-1.108-.441s-.408-.689-.408-1.185c0-.503.138-.898.413-1.185s.653-.435 1.136-.435c.157 0 .31.017.458.05a2.3 2.3 0 0 1 .435.143zm0 0"/><use xlink:href="#B" x="106.914"/><use xlink:href="#E" x="59.322"/><use xlink:href="#H" x="12.228"/><use xlink:href="#G" x="18.951"/></g><defs ><path id="B" d="M11.921 6.555a.76.76 0 0 0-.645.32c-.158.214-.237.504-.237.871 0 .372.077.664.232.876s.375.314.65.314c.267 0 .481-.106.639-.32s.237-.503.237-.871-.08-.652-.237-.865-.372-.325-.639-.325zm0-.43c.441 0 .785.143 1.036.43s.38.684.38 1.191-.127.907-.38 1.196-.595.43-1.036.43-.792-.143-1.042-.43-.375-.689-.375-1.196.124-.904.375-1.191.597-.43 1.042-.43zm0 0"/><path id="C" d="M50.528 7.618v.248h-2.332c.022.35.127.616.314.799s.449.27.788.27a2.17 2.17 0 0 0 .562-.072 2.44 2.44 0 0 0 .546-.215v.48a2.97 2.97 0 0 1-.557.176c-.192.044-.386.066-.584.066-.493 0-.882-.143-1.169-.43s-.43-.679-.43-1.169c0-.503.135-.904.408-1.202s.639-.446 1.102-.446c.415 0 .744.135.987.402s.364.633.364 1.091zm-.507-.149c-.004-.278-.083-.502-.237-.667s-.351-.248-.601-.248c-.284 0-.51.081-.678.243s-.267.383-.292.672zm0 0"/><path id="D" d="M53.146 6.676c-.055-.033-.119-.056-.187-.072s-.141-.028-.22-.028c-.287 0-.507.094-.661.281s-.226.456-.226.805v1.626h-.513V6.202h.513v.48c.106-.187.244-.327.413-.419a1.32 1.32 0 0 1 .623-.138.71.71 0 0 1 .116.011l.143.017zm0 0"/><path id="E" d="M63.17 7.734c-.408 0-.692.048-.849.143s-.237.252-.237.48c0 .181.058.324.176.43s.278.154.485.154a.84.84 0 0 0 .672-.298c.172-.198.259-.463.259-.794v-.116zm1.014-.209v1.764h-.507V8.82c-.119.187-.263.328-.435.419s-.384.132-.634.132c-.317 0-.568-.088-.755-.265s-.276-.419-.276-.717c0-.349.116-.612.347-.788s.579-.265 1.042-.265h.711v-.05c0-.232-.077-.411-.232-.54s-.369-.193-.645-.193a2.04 2.04 0 0 0-.518.066c-.165.041-.325.103-.48.187V6.34c.183-.069.361-.123.535-.16s.347-.055.513-.055c.448 0 .783.116 1.003.347s.331.583.331 1.053zm0 0"/><path id="F" d="M85.147 6.67V5h.507v4.288h-.507v-.463c-.107.185-.241.322-.402.413s-.357.132-.584.132a1.11 1.11 0 0 1-.915-.446c-.232-.3-.347-.695-.347-1.18s.116-.876.347-1.174a1.11 1.11 0 0 1 .915-.446c.227 0 .422.047.584.138a1.06 1.06 0 0 1 .402.408zm-1.725 1.075c0 .375.074.67.226.882s.365.314.634.314.48-.105.634-.314.232-.507.232-.882-.077-.663-.232-.876-.367-.32-.634-.32a.74.74 0 0 0-.634.32c-.152.214-.226.506-.226.876zm0 0"/><path id="G" d="M109.781 6.29v.48c-.143-.073-.292-.128-.446-.165s-.314-.055-.48-.055c-.254 0-.444.039-.568.116a.38.38 0 0 0-.187.347c0 .119.044.212.132.281s.273.13.546.187l.171.039c.36.077.615.187.766.331s.232.335.232.584c0 .287-.114.515-.342.684s-.54.254-.937.254a2.86 2.86 0 0 1-.518-.05 4.28 4.28 0 0 1-.562-.149v-.524c.187.099.371.174.551.22a2.12 2.12 0 0 0 .54.072c.238 0 .422-.04.551-.121s.193-.196.193-.347c0-.135-.047-.24-.138-.314s-.296-.145-.612-.215l-.176-.039c-.313-.066-.539-.167-.678-.303s-.209-.328-.209-.568c0-.289.102-.514.309-.672s.497-.237.876-.237a3.07 3.07 0 0 1 .529.044 2.18 2.18 0 0 1 .458.121zm0 0"/><path id="H" d="M112.824 5.325v.876h1.042v.391h-1.042v1.676c0 .254.033.418.099.491s.211.105.424.105h.518v.424h-.518c-.394 0-.666-.073-.816-.22s-.22-.413-.22-.799V6.593h-.369v-.391h.369v-.876zm0 0"/></defs></svg>