<svg xmlns="http://www.w3.org/2000/svg" xmlns:xlink="http://www.w3.org/1999/xlink" width="457.333" height="902.667" viewBox="0 0 343 677" style="background:white"><style><![CDATA[.B{animation:1.5s infinite linear depict-placeholder;-webkit-mask:linear-gradient(-60deg, #000 30%, #0005, #000 70%) 125% / 300% 100%}@keyframes depict-placeholder{00%{mask-position-x:125%;-webkit-mask-position-x:125%}10%{mask-position-x:125%;-webkit-mask-position-x:125%}90%{mask-position-x:-25%;-webkit-mask-position-x:-25%}100%{mask-position-x:-25%;-webkit-mask-position-x:-25%}} @keyframes depict-placeholder{00%{mask-position-x:125%;-webkit-mask-position-x:125%}10%{mask-position-x:125%;-webkit-mask-position-x:125%}90%{mask-position-x:-25%;-webkit-mask-position-x:-25%}100%{mask-position-x:-25%;-webkit-mask-position-x:-25%}}.D{fill:#ddd}.E{fill-rule:nonzero}.F{fill-opacity:1}]]></style><defs><path d="M6.5-2.508c0-1.043-.531-1.758-2.039-2.652l-1.199-.715c-.988-.598-1.414-.965-1.414-1.574 0-.949.57-1.234 1.91-1.234l2.234.078h.027c.129 0 .219-.078.219-.207v-.559c0-.133-.09-.195-.219-.223-.496-.078-1.496-.156-2.262-.156-1.977 0-3.109.727-3.109 2.301 0 1.039.598 1.703 1.797 2.43l1.258.77c1.184.727 1.563 1.09 1.563 1.742 0 .91-.418 1.531-1.977 1.531-.598 0-1.547-.023-2.145-.078h-.039c-.117 0-.223.066-.223.211v.52c0 .141.027.195.25.234a13.1 13.1 0 0 0 2.156.18C5.852.09 6.5-1.262 6.5-2.508zm0 0" id="A"/><path d="M6.449-.156V-.82c0-.09-.055-.156-.145-.156H3.797c-1.379 0-1.602-.363-1.602-1.352v-2.184h3.992a.26.26 0 0 0 .262-.258v-.496a.26.26 0 0 0-.262-.258H2.195v-1.809c0-.988.223-1.352 1.602-1.352h2.508c.09 0 .145-.066.145-.156v-.648c0-.078-.055-.172-.133-.184-.543-.051-1.766-.078-2.535-.078-1.816 0-2.766.688-2.766 2.418v5.004c0 1.73.949 2.418 2.766 2.418L6.316.027c.078-.016.133-.105.133-.184zm0 0" id="B"/><path d="M7.332-.129c0-.055-.027-.117-.066-.156l-3.91-4.68 3.91-4.422c.039-.039.055-.09.055-.129 0-.078-.055-.145-.184-.145H6.2c-.129 0-.18.039-.258.117L2.195-5.215V-9.41c0-.145-.117-.25-.246-.25h-.687c-.145 0-.246.117-.246.25v9.148c0 .145.102.262.23.262h.719c.141 0 .23-.129.23-.262V-4.59L5.863-.129A.35.35 0 0 0 6.148 0h1.016c.117 0 .168-.066.168-.129zm0 0" id="C"/><clipPath id="D"><path d="M0 0h127v17H0z"/></clipPath><g id="E" clip-path="url(#D)"><path d="M0 0h126v16H0zm0 0" class="B D E F"/></g><clipPath id="F"><path d="M0 0h127v17H0z"/></clipPath><g id="G" clip-path="url(#F)"><path d="M0 0h126v16H0zm0 0" class="B D E F"/></g><clipPath id="H"><path d="M0 0h127v17H0z"/></clipPath><g id="I" clip-path="url(#H)"><use xlink:href="#E"/><use xlink:href="#G"/></g><clipPath id="J"><path d="M0 0h320v61H0z"/></clipPath><g id="K" clip-path="url(#J)"><path d="M0 0h320v60H0zm0 0" class="B D E F"/></g><clipPath id="L"><path d="M0 0h320v61H0z"/></clipPath><g id="M" clip-path="url(#L)"><path d="M0 0h320v60H0zm0 0" class="B D E F"/></g><clipPath id="N"><path d="M0 0h320v61H0z"/></clipPath><g id="O" clip-path="url(#N)"><use xlink:href="#K"/><use xlink:href="#M"/></g><clipPath id="P"><path d="M0 0h25v14H0z"/></clipPath><g id="Q" clip-path="url(#P)"><path d="M1 0h24v13H1zm0 0" class="B D E F"/></g><clipPath id="R"><path d="M0 0h25v14H0z"/></clipPath><g id="S" clip-path="url(#R)"><path d="M1 0h24v13H1zm0 0" class="B D E F"/></g><clipPath id="T"><path d="M0 0h25v14H0z"/></clipPath><g id="U" clip-path="url(#T)"><use xlink:href="#Q"/><use xlink:href="#S"/></g><clipPath id="V"><path d="M0 0h194v22H0z"/></clipPath><g id="W" clip-path="url(#V)"><path d="M1 0h192v22H1zm0 0" class="B D E F"/></g><clipPath id="X"><path d="M0 0h194v22H0z"/></clipPath><g id="Y" clip-path="url(#X)"><path d="M1 0h192v22H1zm0 0" class="B D E F"/></g><clipPath id="Z"><path d="M0 0h194v22H0z"/></clipPath><g id="a" clip-path="url(#Z)"><use xlink:href="#W"/><use xlink:href="#Y"/></g><clipPath ><path d="M0 0h320v61H0z"/></clipPath><clipPath ><path d="M0 0h24v14H0z"/></clipPath><clipPath ><path d="M0 0h193v22H0z"/></clipPath><clipPath ><path d="M0 0h343v515H0z"/></clipPath><clipPath ><path d="M0 0h320v61H0z"/></clipPath><clipPath ><path d="M0 0h193v22H0z"/></clipPath><clipPath ><path d="M0 0h343v515H0z"/></clipPath><clipPath ><path d="M0 0h193v22H0z"/></clipPath><clipPath ><path d="M0 0h320v60H0z"/></clipPath><clipPath ><path d="M0 0h194v22H0z"/></clipPath><clipPath ><path d="M0 0h320v60H0z"/></clipPath><clipPath ><path d="M0 0h343v515H0z"/></clipPath><clipPath ><path d="M0 0h320v60H0z"/></clipPath><clipPath ><path d="M0 0h25v14H0z"/></clipPath><clipPath ><path d="M0 0h127v17H0z"/></clipPath><clipPath ><path d="M0 0h320v60H0z"/></clipPath><clipPath ><path d="M0 0h193v22H0z"/></clipPath><clipPath ><path d="M0 0h343v515H0z"/></clipPath><clipPath ><path d="M0 0h25v14H0z"/></clipPath><clipPath ><path d="M0 0h194v23H0z"/></clipPath><clipPath ><path d="M0 0h127v17H0z"/></clipPath><clipPath ><path d="M0 0h320v60H0z"/></clipPath><clipPath ><path d="M0 0h193v23H0z"/></clipPath><clipPath ><path d="M0 0h320v60H0z"/></clipPath><clipPath ><path d="M0 0h320v60H0z"/></clipPath><clipPath ><path d="M0 0h193v23H0z"/></clipPath><clipPath ><path d="M0 0h343v515H0z"/></clipPath><clipPath ><path d="M0 0h320v60H0z"/></clipPath><clipPath ><path d="M0 0h320v60H0z"/></clipPath><clipPath ><path d="M0 0h193v23H0z"/></clipPath><clipPath ><path d="M0 0h127v17H0z"/></clipPath><clipPath ><path d="M0 0h320v60H0z"/></clipPath><clipPath ><path d="M0 0h193v23H0z"/></clipPath><clipPath ><path d="M0 0h193v23H0z"/></clipPath><clipPath ><path d="M0 0h25v14H0z"/></clipPath><clipPath ><path d="M0 0h194v22H0z"/></clipPath><clipPath ><path d="M0 0h320v61H0z"/></clipPath><clipPath ><path d="M0 0h193v22H0z"/></clipPath><clipPath ><path d="M0 0h320v61H0z"/></clipPath><clipPath ><path d="M0 0h343v514H0z"/></clipPath><clipPath ><path d="M0 0h127v17H0z"/></clipPath><clipPath ><path d="M0 0h24v14H0z"/></clipPath><clipPath ><path d="M0 0h25v14H0z"/></clipPath><clipPath ><path d="M0 0h127v17H0z"/></clipPath><clipPath ><path d="M0 0h320v61H0z"/></clipPath><clipPath ><path d="M0 0h193v22H0z"/></clipPath><clipPath ><path d="M0 0h343v514H0z"/></clipPath><clipPath ><path d="M0 0h127v17H0z"/></clipPath><clipPath ><path d="M0 0h320v61H0z"/></clipPath><clipPath ><path d="M0 0h24v14H0z"/></clipPath><clipPath ><path d="M0 0h343v515H0z"/></clipPath><clipPath ><path d="M0 0h320v60H0z"/></clipPath><clipPath ><path d="M0 0h320v60H0z"/></clipPath><clipPath ><path d="M0 0h320v60H0z"/></clipPath><clipPath ><path d="M0 0h25v14H0z"/></clipPath><clipPath ><path d="M0 0h25v14H0z"/></clipPath><clipPath ><path d="M0 0h127v17H0z"/></clipPath><clipPath ><path d="M0 0h127v17H0z"/></clipPath><clipPath ><path d="M0 0h127v17H0z"/></clipPath></defs><use xlink:href="#A" x="174.945" y="648"/><use xlink:href="#B" x="182.095" y="648"/><use xlink:href="#C" x="189.258" y="648"/><use xlink:href="#I" x="108" y="531"/><use xlink:href="#O" x="11" y="559"/><use xlink:href="#U" x="144" y="635"/><path class="B D" d="M0 0h343v515H0zm0 0"/><use xlink:href="#a" x="74" y="655"/></svg>