<svg xmlns="http://www.w3.org/2000/svg" xmlns:xlink="http://www.w3.org/1999/xlink" width="1132.464" height="92.462" viewBox="0 0 299.631 24.464"><style><![CDATA[.B{clip-rule:nonzero}.C{fill:#0f0f0f}.D{stroke:#cbcbcc}]]></style><defs><clipPath id="A"><path d="M18 257h192v41H18zm0 0" class="B"/></clipPath><clipPath id="B"><path d="M214 257h193v41H214zm0 0" class="B"/></clipPath><clipPath id="C"><path d="M214 294v-33c0-2.668 1.332-4 4-4h185c2.668 0 4 1.332 4 4v33c0 2.668-1.332 4-4 4H218c-2.668 0-4-1.332-4-4zm0 0" class="B"/></clipPath><clipPath id="D"><path d="M411 257h165v41H411zm0 0" class="B"/></clipPath><clipPath id="E"><path d="M574 257h167v41H574zm0 0" class="B"/></clipPath><clipPath id="F"><path d="M739 257h106v41H739zm0 0" class="B"/></clipPath><path id="G" d="M15.827 12.954v-1.869h.507v1.847c0 .295.056.515.171.661s.284.215.513.215c.276 0 .492-.085.65-.259s.237-.415.237-.717v-1.747h.507v3.087h-.507v-.474a1.22 1.22 0 0 1-.43.419c-.163.091-.35.138-.562.138-.357 0-.627-.11-.81-.331s-.276-.547-.276-.97zm1.279-1.946zm0 0"/><path id="H" d="M22.022 12.309v1.863h-.507v-1.847c0-.294-.058-.513-.171-.656s-.285-.22-.513-.22c-.273 0-.488.088-.645.265s-.237.411-.237.711v1.747h-.513v-3.087h.513v.48a1.24 1.24 0 0 1 .424-.419c.165-.091.356-.138.573-.138.353 0 .619.11.799.331s.276.544.276.97zm0 0"/><path id="I" d="M25.258 11.201v.474c-.143-.077-.289-.135-.435-.176a1.62 1.62 0 0 0-.435-.061c-.328 0-.583.105-.766.314s-.27.502-.27.876.09.672.27.882.438.309.766.309a1.73 1.73 0 0 0 .435-.055 1.9 1.9 0 0 0 .435-.182v.469a2.16 2.16 0 0 1-.441.149 2.1 2.1 0 0 1-.485.055c-.463 0-.832-.146-1.108-.441s-.408-.689-.408-1.185c0-.503.138-.898.413-1.185s.653-.435 1.136-.435c.157 0 .31.017.458.05a2.3 2.3 0 0 1 .435.143zm0 0"/><path id="J" d="M26.641 10.209v.876h1.042v.391h-1.042v1.676c0 .254.033.418.099.491s.211.105.424.105h.518v.424h-.518c-.394 0-.666-.073-.816-.22s-.22-.413-.22-.799v-1.676h-.369v-.391h.369v-.876zm0 0"/><path id="K" d="M28.353 11.086h.507v3.087h-.507zm0-1.202h.507v.639h-.507zm0 0"/><path id="L" d="M31.117 11.439a.76.76 0 0 0-.645.32c-.158.214-.237.504-.237.871 0 .372.077.664.232.876s.375.314.65.314c.267 0 .481-.106.639-.32s.237-.503.237-.871-.08-.652-.237-.865-.372-.325-.639-.325zm0-.43c.441 0 .785.143 1.036.43s.38.684.38 1.191-.127.907-.38 1.196-.595.43-1.036.43-.792-.143-1.042-.43-.375-.689-.375-1.196.124-.904.375-1.191.597-.43 1.042-.43zm0 0"/><path id="M" d="M38.352 12.618c-.408 0-.692.048-.849.143s-.237.252-.237.48c0 .181.058.324.176.43s.278.154.485.154a.84.84 0 0 0 .672-.298c.172-.198.259-.463.259-.794v-.116zm1.014-.209v1.764h-.507v-.469c-.119.187-.263.328-.435.419s-.384.132-.634.132c-.317 0-.568-.088-.755-.265s-.276-.419-.276-.717c0-.349.116-.612.347-.788s.579-.265 1.042-.265h.711v-.05c0-.232-.077-.411-.232-.54s-.369-.193-.645-.193a2.04 2.04 0 0 0-.518.066c-.165.041-.325.103-.48.187v-.469c.183-.069.361-.123.535-.16s.347-.055.513-.055c.448 0 .783.116 1.003.347s.331.583.331 1.053zm0 0"/><path id="N" d="M51.978 9.884h.513v2.53l1.51-1.328h.65l-1.637 1.444 1.703 1.643h-.661l-1.565-1.51v1.51h-.513zm0 0"/><path id="O" d="M57.708 12.502v.248h-2.332c.022.35.127.616.314.799s.449.27.788.27a2.17 2.17 0 0 0 .562-.072 2.44 2.44 0 0 0 .546-.215v.48a2.97 2.97 0 0 1-.557.176c-.192.044-.386.066-.584.066-.493 0-.882-.143-1.169-.43s-.43-.679-.43-1.169c0-.503.135-.904.408-1.202s.639-.446 1.102-.446c.415 0 .744.135.987.402s.364.633.364 1.091zm-.507-.149c-.004-.278-.083-.502-.237-.667s-.351-.248-.601-.248c-.284 0-.51.081-.678.243s-.267.383-.292.672zm0 0"/><path id="P" d="M62.721 11.174v.48c-.143-.073-.292-.128-.446-.165s-.314-.055-.48-.055c-.254 0-.444.039-.568.116a.38.38 0 0 0-.187.347c0 .119.044.212.132.281s.273.13.546.187l.171.039c.36.077.615.187.766.331s.232.335.232.584c0 .287-.114.515-.342.684s-.54.254-.937.254a2.86 2.86 0 0 1-.518-.05 4.28 4.28 0 0 1-.562-.149v-.524c.187.099.371.174.551.22a2.12 2.12 0 0 0 .54.072c.238 0 .422-.04.551-.121s.193-.196.193-.347c0-.135-.047-.24-.138-.314s-.296-.145-.612-.215l-.176-.039c-.313-.066-.539-.167-.678-.303s-.209-.328-.209-.568c0-.289.102-.514.309-.672s.497-.237.876-.237a3.07 3.07 0 0 1 .529.044 2.18 2.18 0 0 1 .458.121zm0 0"/><path id="Q" d="M82.617 10.512v1.549h.7c.256 0 .455-.066.595-.198s.215-.328.215-.579c0-.245-.072-.435-.215-.568s-.339-.204-.595-.204zm-.557-.458h1.257c.459 0 .806.105 1.042.314s.358.515.358.915c0 .408-.12.717-.358.926s-.583.309-1.042.309h-.7v1.654h-.557zm0 0"/><path id="R" d="M90.676 11.554v-1.67h.507v4.288h-.507v-.463c-.107.185-.241.322-.402.413s-.357.132-.584.132a1.11 1.11 0 0 1-.915-.446c-.232-.3-.347-.695-.347-1.18s.116-.876.347-1.174a1.11 1.11 0 0 1 .915-.446c.227 0 .422.047.584.138a1.06 1.06 0 0 1 .402.408zm-1.725 1.075c0 .375.074.67.226.882s.365.314.634.314.48-.105.634-.314.232-.507.232-.882-.077-.663-.232-.876-.367-.32-.634-.32a.74.74 0 0 0-.634.32c-.152.214-.226.506-.226.876zm0 0"/><path id="S" d="M156.067 10.193v.54c-.209-.099-.408-.172-.595-.22s-.369-.077-.546-.077c-.302 0-.535.059-.7.176a.58.58 0 0 0-.248.502c0 .181.055.318.165.413s.317.165.623.22l.336.072c.415.077.719.218.915.419s.298.466.298.799c0 .397-.135.7-.402.91s-.656.309-1.174.309c-.196 0-.402-.025-.623-.072s-.444-.107-.678-.193v-.573c.223.125.444.22.661.287s.43.094.639.094c.32 0 .565-.062.739-.187a.62.62 0 0 0 .259-.535c0-.201-.063-.36-.187-.474s-.329-.198-.612-.254l-.336-.066c-.416-.084-.717-.215-.904-.391s-.276-.42-.276-.733c0-.364.127-.65.38-.86s.612-.314 1.064-.314c.19 0 .386.019.584.055s.408.085.617.154zm0 0"/><path id="T" d="M173.064 11.086h.507v3.142c0 .393-.076.678-.226.854s-.391.265-.722.265h-.198v-.43h.138c.194 0 .327-.044.397-.132s.105-.274.105-.557zm0-1.202h.507v.639h-.507zm0 0"/></defs><path fill="#fff" d="M5.177 18.053V6.411a1.19 1.19 0 0 1 .361-.874 1.19 1.19 0 0 1 .874-.361h62.794a1.19 1.19 0 0 1 .874.361 1.19 1.19 0 0 1 .361.874v11.642a1.19 1.19 0 0 1-.361.874 1.19 1.19 0 0 1-.874.361H6.412a1.19 1.19 0 0 1-.874-.361 1.19 1.19 0 0 1-.361-.874zm0 0"/><g clip-path="url(#A)" transform="matrix(.352778 0 0 .352778 -1.349308 -85.663626)" class="D"><path fill="none" d="M18.5 294v-33c0-.965.34-1.793 1.023-2.477S21.035 257.5 22 257.5h178c.965 0 1.793.34 2.477 1.023s1.023 1.512 1.023 2.477v33c0 .965-.34 1.793-1.023 2.477S200.965 297.5 200 297.5H22c-.965 0-1.793-.34-2.477-1.023S18.5 294.965 18.5 294zm0 0"/></g><g class="C"><path d="M12.966 10.055h2.365v.469h-1.808v1.213h1.632v.469h-1.632v1.968h-.557zm0 0"/><use xlink:href="#G"/><use xlink:href="#H"/><use xlink:href="#I"/><use xlink:href="#J"/><use xlink:href="#K"/><use xlink:href="#L"/><use xlink:href="#H" x="13.916"/><use xlink:href="#M"/><path d="M40.411 9.884h.507v4.288h-.507zm3.384.171h.557v3.831c0 .496-.096.856-.287 1.08s-.491.336-.91.336h-.209v-.469h.171c.249 0 .424-.07.524-.209s.154-.383.154-.739zm0 0"/><use xlink:href="#M" x="8.486"/><use xlink:href="#I" x="25.86"/><use xlink:href="#N"/><use xlink:href="#O"/><use xlink:href="#J" x="32.401"/><use xlink:href="#P"/></g><g clip-path="url(#B)" transform="matrix(.352778 0 0 .352778 -1.349308 -85.663626)" class="C"><g clip-path="url(#C)"><path d="M214 257h193v41H214zm0 0"/></g></g><g fill="#fff"><use xlink:href="#Q"/><use xlink:href="#M" x="48.237"/><use xlink:href="#R"/><use xlink:href="#R" x="3.583"/><use xlink:href="#O" x="40.746"/><use xlink:href="#R" x="10.639"/><path d="M104.316 10.055h.562l.865 3.478.865-3.478h.623l.865 3.478.865-3.478h.562l-1.031 4.118h-.7l-.871-3.572-.876 3.572h-.7zm0 0"/><use xlink:href="#M" x="72.931"/><use xlink:href="#P" x="52.589"/><use xlink:href="#K" x="87.93"/><use xlink:href="#J" x="91.712"/><use xlink:href="#I" x="97.027"/><use xlink:href="#L" x="93.247"/><use xlink:href="#M" x="89.669"/><use xlink:href="#J" x="103.94"/><use xlink:href="#P" x="71.54"/><path d="M145.935 18.053V6.411a1.19 1.19 0 0 1 .361-.874 1.19 1.19 0 0 1 .874-.361h51.153a1.19 1.19 0 0 1 .874.361 1.19 1.19 0 0 1 .361.874v11.642a1.19 1.19 0 0 1-.361.874 1.19 1.19 0 0 1-.874.361H147.17a1.19 1.19 0 0 1-.874-.361 1.19 1.19 0 0 1-.361-.874zm0 0"/></g><g clip-path="url(#D)" transform="matrix(.352778 0 0 .352778 -1.349308 -85.663626)" class="D"><path fill="none" d="M417.5 294v-33c0-.965.34-1.793 1.023-2.477s1.512-1.023 2.477-1.023h145c.965 0 1.793.34 2.477 1.023s1.023 1.512 1.023 2.477v33c0 .965-.34 1.793-1.023 2.477S566.965 297.5 566 297.5H421c-.965 0-1.793-.34-2.477-1.023S417.5 294.965 417.5 294zm0 0"/></g><g class="C"><use xlink:href="#S"/><use xlink:href="#G" x="141.282"/><use xlink:href="#O" x="105.673"/><use xlink:href="#R" x="75.566"/><use xlink:href="#O" x="112.729"/><use xlink:href="#T"/><use xlink:href="#M" x="137.68"/><use xlink:href="#I" x="155.054"/><use xlink:href="#N" x="129.194"/><use xlink:href="#O" x="129.194"/><use xlink:href="#J" x="161.595"/><use xlink:href="#P" x="129.194"/></g><path fill="#fff" d="M203.438 18.053V6.411a1.19 1.19 0 0 1 .361-.874 1.19 1.19 0 0 1 .874-.361h51.858a1.19 1.19 0 0 1 .874.361c.24.241.361.533.361.874v11.642c0 .34-.121.633-.361.874a1.19 1.19 0 0 1-.874.361h-51.858a1.19 1.19 0 0 1-.874-.361 1.19 1.19 0 0 1-.361-.874zm0 0"/><g clip-path="url(#E)" transform="matrix(.352778 0 0 .352778 -1.349308 -85.663626)" class="D"><path fill="none" d="M580.5 294v-33c0-.965.34-1.793 1.023-2.477s1.512-1.023 2.477-1.023h147c.965 0 1.793.34 2.477 1.023A3.39 3.39 0 0 1 734.5 261v33a3.39 3.39 0 0 1-1.023 2.477c-.684.684-1.512 1.023-2.477 1.023H584c-.965 0-1.793-.34-2.477-1.023S580.5 294.965 580.5 294zm0 0"/></g><g class="C"><use xlink:href="#S" x="57.651"/><path d="M215.306 13.71v1.637h-.513v-4.261h.513v.469c.106-.183.24-.32.402-.408a1.17 1.17 0 0 1 .584-.138 1.1 1.1 0 0 1 .91.446c.232.297.353.689.353 1.174s-.119.879-.353 1.18a1.09 1.09 0 0 1-.91.446 1.2 1.2 0 0 1-.584-.132c-.163-.091-.296-.229-.402-.413zm1.725-1.08c0-.371-.077-.663-.232-.876s-.367-.32-.634-.32a.74.74 0 0 0-.634.32c-.152.214-.226.506-.226.876s.074.67.226.882.365.314.634.314.48-.105.634-.314.232-.507.232-.882zm3.153-1.07c-.055-.033-.119-.056-.187-.072a.95.95 0 0 0-.22-.028c-.287 0-.507.094-.661.281s-.226.456-.226.805v1.626h-.513v-3.087h.513v.48c.106-.187.244-.327.413-.419a1.32 1.32 0 0 1 .623-.138.71.71 0 0 1 .116.011l.143.017zm0 0"/><use xlink:href="#K" x="192.366"/><use xlink:href="#H" x="202.828"/><path d="M227.893 12.591c0-.367-.076-.652-.226-.854s-.364-.303-.639-.303-.484.102-.634.303-.226.488-.226.854.074.653.226.854.361.303.634.303a.75.75 0 0 0 .639-.303c.15-.201.226-.486.226-.854zm.507 1.196c0 .529-.119.921-.353 1.174s-.588.386-1.069.386a3.22 3.22 0 0 1-.502-.039c-.158-.026-.313-.066-.463-.121v-.496a2.03 2.03 0 0 0 .441.176c.146.04.295.061.446.061.331 0 .579-.087.744-.259s.248-.435.248-.788v-.254a1.03 1.03 0 0 1-.402.413c-.163.088-.357.132-.584.132-.379 0-.684-.143-.915-.43s-.347-.674-.347-1.152.116-.86.347-1.147.536-.435.915-.435c.227 0 .422.047.584.138s.299.225.402.408v-.469h.507zm0 0"/><use xlink:href="#T" x="58.178"/><use xlink:href="#M" x="195.858"/><use xlink:href="#I" x="213.232"/><use xlink:href="#N" x="187.372"/><use xlink:href="#O" x="187.372"/><use xlink:href="#J" x="219.773"/><use xlink:href="#P" x="187.372"/></g><path fill="#fff" d="M261.647 18.053V6.411a1.19 1.19 0 0 1 .361-.874 1.19 1.19 0 0 1 .874-.361h30.339a1.19 1.19 0 0 1 .874.361 1.19 1.19 0 0 1 .361.874v11.642a1.19 1.19 0 0 1-.361.874 1.19 1.19 0 0 1-.874.361h-30.339a1.19 1.19 0 0 1-.874-.361 1.19 1.19 0 0 1-.361-.874zm0 0"/><g clip-path="url(#F)" transform="matrix(.352778 0 0 .352778 -1.349308 -85.663626)" class="D"><path fill="none" d="M745.5 294v-33c0-.965.34-1.793 1.023-2.477s1.512-1.023 2.477-1.023h86c.965 0 1.793.34 2.477 1.023s1.023 1.512 1.023 2.477v33c0 .965-.34 1.793-1.023 2.477S835.965 297.5 835 297.5h-86c-.965 0-1.793-.34-2.477-1.023S745.5 294.965 745.5 294zm0 0"/></g><g class="C"><use xlink:href="#Q" x="187.375"/><use xlink:href="#M" x="235.612"/><path d="M277.808 11.56c-.055-.033-.119-.056-.187-.072s-.141-.028-.22-.028c-.287 0-.507.094-.661.281s-.226.456-.226.805v1.626H276v-3.087h.513v.48c.106-.187.244-.327.413-.419a1.32 1.32 0 0 1 .623-.138.71.71 0 0 1 .116.011l.143.017zm0 0"/><use xlink:href="#N" x="226.343"/><use xlink:href="#M" x="244.561"/><use xlink:href="#P" x="224.218"/></g></svg>